<svg id="visual" viewBox="0 0 960 540" width="960" height="540" xmlns="http://www.w3.org/2000/svg" xmlns:xlink="http://www.w3.org/1999/xlink" version="1.1"><rect x="0" y="0" width="960" height="540" fill="#003285"></rect><defs><linearGradient id="grad1_0" x1="43.8%" y1="100%" x2="100%" y2="0%"><stop offset="14.444444444444446%" stop-color="#003285" stop-opacity="1"></stop><stop offset="85.55555555555554%" stop-color="#003285" stop-opacity="1"></stop></linearGradient></defs><defs><linearGradient id="grad2_0" x1="0%" y1="100%" x2="56.3%" y2="0%"><stop offset="14.444444444444446%" stop-color="#003285" stop-opacity="1"></stop><stop offset="85.55555555555554%" stop-color="#003285" stop-opacity="1"></stop></linearGradient></defs><g transform="translate(960, 540)"><path d="M-135 0C-127.7 -21.3 -120.3 -42.6 -110 -63.5C-99.7 -84.4 -86.3 -105.1 -67.5 -116.9C-48.7 -128.8 -24.3 -131.9 0 -135L0 0Z" fill="#FF7F3E"></path></g><g transform="translate(0, 0)"><path d="M135 0C124.9 19.7 114.8 39.4 104.8 60.5C94.8 81.6 84.9 104.3 67.5 116.9C50.1 129.6 25 132.3 0 135L0 0Z" fill="#FF7F3E"></path></g></svg>