<svg id="visual" viewBox="0 0 900 600" width="900" height="600" xmlns="http://www.w3.org/2000/svg" xmlns:xlink="http://www.w3.org/1999/xlink" version="1.1"><rect x="0" y="0" width="900" height="600" fill="#ffffff"></rect><path d="M0 481L21.5 491.5C43 502 86 523 128.8 533.5C171.7 544 214.3 544 257.2 538.3C300 532.7 343 521.3 385.8 510.3C428.7 499.3 471.3 488.7 514.2 487.7C557 486.7 600 495.3 642.8 499.8C685.7 504.3 728.3 504.7 771.2 500.3C814 496 857 487 878.5 482.5L900 478L900 601L878.5 601C857 601 814 601 771.2 601C728.3 601 685.7 601 642.8 601C600 601 557 601 514.2 601C471.3 601 428.7 601 385.8 601C343 601 300 601 257.2 601C214.3 601 171.7 601 128.8 601C86 601 43 601 21.5 601L0 601Z" fill="#FF7f3e" stroke-linecap="round" stroke-linejoin="miter"></path></svg>