<svg id="visual" viewBox="0 0 900 600" width="900" height="600" xmlns="http://www.w3.org/2000/svg" xmlns:xlink="http://www.w3.org/1999/xlink" version="1.1"><rect x="0" y="0" width="900" height="600" fill="#e8eaec"></rect><defs><linearGradient id="grad1_0" x1="33.3%" y1="0%" x2="100%" y2="100%"><stop offset="20%" stop-color="#e8eaec" stop-opacity="1"></stop><stop offset="80%" stop-color="#e8eaec" stop-opacity="1"></stop></linearGradient></defs><defs><linearGradient id="grad2_0" x1="0%" y1="0%" x2="66.7%" y2="100%"><stop offset="20%" stop-color="#e8eaec" stop-opacity="1"></stop><stop offset="80%" stop-color="#e8eaec" stop-opacity="1"></stop></linearGradient></defs><g transform="translate(900, 0)"><path d="M0 270.4C-35.7 267.1 -71.4 263.7 -103.5 249.8C-135.6 235.9 -164.2 211.5 -183.8 183.8C-203.5 156.2 -214.3 125.3 -227.3 94.1C-240.2 63 -255.3 31.5 -270.4 0L0 0Z" fill="#FBAE3C"></path></g><g transform="translate(0, 600)"><path d="M0 -270.4C36.4 -266.6 72.8 -262.8 102.6 -247.6C132.3 -232.4 155.5 -205.8 181 -181C206.6 -156.3 234.5 -133.3 249.8 -103.5C265.1 -73.6 267.8 -36.8 270.4 0L0 0Z" fill="#FBAE3C"></path></g></svg>