<svg id="visual" viewBox="0 0 900 600" width="900" height="600" xmlns="http://www.w3.org/2000/svg" xmlns:xlink="http://www.w3.org/1999/xlink" version="1.1"><rect x="0" y="0" width="900" height="600" fill="#001220"></rect><path d="M0 409L21.5 417C43 425 86 441 128.8 445.3C171.7 449.7 214.3 442.3 257.2 444.7C300 447 343 459 385.8 458.2C428.7 457.3 471.3 443.7 514.2 440.8C557 438 600 446 642.8 445.3C685.7 444.7 728.3 435.3 771.2 430.5C814 425.7 857 425.3 878.5 425.2L900 425L900 601L878.5 601C857 601 814 601 771.2 601C728.3 601 685.7 601 642.8 601C600 601 557 601 514.2 601C471.3 601 428.7 601 385.8 601C343 601 300 601 257.2 601C214.3 601 171.7 601 128.8 601C86 601 43 601 21.5 601L0 601Z" fill="#ff7f3e"></path><path d="M0 494L21.5 492C43 490 86 486 128.8 481.2C171.7 476.3 214.3 470.7 257.2 468.7C300 466.7 343 468.3 385.8 466.8C428.7 465.3 471.3 460.7 514.2 456.2C557 451.7 600 447.3 642.8 454C685.7 460.7 728.3 478.3 771.2 482.3C814 486.3 857 476.7 878.5 471.8L900 467L900 601L878.5 601C857 601 814 601 771.2 601C728.3 601 685.7 601 642.8 601C600 601 557 601 514.2 601C471.3 601 428.7 601 385.8 601C343 601 300 601 257.2 601C214.3 601 171.7 601 128.8 601C86 601 43 601 21.5 601L0 601Z" fill="#ff9845"></path><path d="M0 499L21.5 499.8C43 500.7 86 502.3 128.8 506.7C171.7 511 214.3 518 257.2 517.3C300 516.7 343 508.3 385.8 501.7C428.7 495 471.3 490 514.2 488.2C557 486.3 600 487.7 642.8 491.2C685.7 494.7 728.3 500.3 771.2 505.8C814 511.3 857 516.7 878.5 519.3L900 522L900 601L878.5 601C857 601 814 601 771.2 601C728.3 601 685.7 601 642.8 601C600 601 557 601 514.2 601C471.3 601 428.7 601 385.8 601C343 601 300 601 257.2 601C214.3 601 171.7 601 128.8 601C86 601 43 601 21.5 601L0 601Z" fill="#ffaf51"></path><path d="M0 507L21.5 512.2C43 517.3 86 527.7 128.8 533.5C171.7 539.3 214.3 540.7 257.2 539.3C300 538 343 534 385.8 535.7C428.7 537.3 471.3 544.7 514.2 540.8C557 537 600 522 642.8 520.8C685.7 519.7 728.3 532.3 771.2 534.2C814 536 857 527 878.5 522.5L900 518L900 601L878.5 601C857 601 814 601 771.2 601C728.3 601 685.7 601 642.8 601C600 601 557 601 514.2 601C471.3 601 428.7 601 385.8 601C343 601 300 601 257.2 601C214.3 601 171.7 601 128.8 601C86 601 43 601 21.5 601L0 601Z" fill="#ffc563"></path><path d="M0 552L21.5 554C43 556 86 560 128.8 560.3C171.7 560.7 214.3 557.3 257.2 556.2C300 555 343 556 385.8 555.2C428.7 554.3 471.3 551.7 514.2 554.3C557 557 600 565 642.8 566C685.7 567 728.3 561 771.2 558C814 555 857 555 878.5 555L900 555L900 601L878.5 601C857 601 814 601 771.2 601C728.3 601 685.7 601 642.8 601C600 601 557 601 514.2 601C471.3 601 428.7 601 385.8 601C343 601 300 601 257.2 601C214.3 601 171.7 601 128.8 601C86 601 43 601 21.5 601L0 601Z" fill="#ffda78"></path></svg>