<svg id="visual" viewBox="0 0 900 600" width="900" height="600" xmlns="http://www.w3.org/2000/svg" xmlns:xlink="http://www.w3.org/1999/xlink" version="1.1"><rect x="0" y="0" width="900" height="600" fill="#ffffff"></rect><path d="M0 401L16.7 396C33.3 391 66.7 381 100 379.5C133.3 378 166.7 385 200 395.8C233.3 406.7 266.7 421.3 300 428C333.3 434.7 366.7 433.3 400 423.7C433.3 414 466.7 396 500 388.2C533.3 380.3 566.7 382.7 600 394C633.3 405.3 666.7 425.7 700 423C733.3 420.3 766.7 394.7 800 384.8C833.3 375 866.7 381 883.3 384L900 387L900 601L883.3 601C866.7 601 833.3 601 800 601C766.7 601 733.3 601 700 601C666.7 601 633.3 601 600 601C566.7 601 533.3 601 500 601C466.7 601 433.3 601 400 601C366.7 601 333.3 601 300 601C266.7 601 233.3 601 200 601C166.7 601 133.3 601 100 601C66.7 601 33.3 601 16.7 601L0 601Z" fill="#f34538"></path><path d="M0 496L16.7 493.3C33.3 490.7 66.7 485.3 100 486C133.3 486.7 166.7 493.3 200 492.8C233.3 492.3 266.7 484.7 300 487.3C333.3 490 366.7 503 400 500.2C433.3 497.3 466.7 478.7 500 470.5C533.3 462.3 566.7 464.7 600 459.5C633.3 454.3 666.7 441.7 700 440.8C733.3 440 766.7 451 800 460.8C833.3 470.7 866.7 479.3 883.3 483.7L900 488L900 601L883.3 601C866.7 601 833.3 601 800 601C766.7 601 733.3 601 700 601C666.7 601 633.3 601 600 601C566.7 601 533.3 601 500 601C466.7 601 433.3 601 400 601C366.7 601 333.3 601 300 601C266.7 601 233.3 601 200 601C166.7 601 133.3 601 100 601C66.7 601 33.3 601 16.7 601L0 601Z" fill="#ba2243"></path><path d="M0 494L16.7 498.5C33.3 503 66.7 512 100 519.2C133.3 526.3 166.7 531.7 200 527.3C233.3 523 266.7 509 300 502.7C333.3 496.3 366.7 497.7 400 496.8C433.3 496 466.7 493 500 503.3C533.3 513.7 566.7 537.3 600 542.8C633.3 548.3 666.7 535.7 700 530.2C733.3 524.7 766.7 526.3 800 527.2C833.3 528 866.7 528 883.3 528L900 528L900 601L883.3 601C866.7 601 833.3 601 800 601C766.7 601 733.3 601 700 601C666.7 601 633.3 601 600 601C566.7 601 533.3 601 500 601C466.7 601 433.3 601 400 601C366.7 601 333.3 601 300 601C266.7 601 233.3 601 200 601C166.7 601 133.3 601 100 601C66.7 601 33.3 601 16.7 601L0 601Z" fill="#7c123e"></path></svg>