<svg id="visual" viewBox="0 0 900 600" width="900" height="600" xmlns="http://www.w3.org/2000/svg" xmlns:xlink="http://www.w3.org/1999/xlink" version="1.1"><rect x="0" y="0" width="900" height="600" fill="#ffffff"></rect><path d="M0 117L21.5 106.5C43 96 86 75 128.8 64.5C171.7 54 214.3 54 257.2 59.7C300 65.3 343 76.7 385.8 87.7C428.7 98.7 471.3 109.3 514.2 110.3C557 111.3 600 102.7 642.8 98.2C685.7 93.7 728.3 93.3 771.2 97.7C814 102 857 111 878.5 115.5L900 120L900 0L878.5 0C857 0 814 0 771.2 0C728.3 0 685.7 0 642.8 0C600 0 557 0 514.2 0C471.3 0 428.7 0 385.8 0C343 0 300 0 257.2 0C214.3 0 171.7 0 128.8 0C86 0 43 0 21.5 0L0 0Z" fill="#FF7f3e" stroke-linecap="round" stroke-linejoin="miter"></path></svg>