<svg id="visual" viewBox="0 0 900 600" width="900" height="600" xmlns="http://www.w3.org/2000/svg" xmlns:xlink="http://www.w3.org/1999/xlink" version="1.1"><rect x="0" y="0" width="900" height="600" fill="#001220"></rect><path d="M0 434L21.5 432C43 430 86 426 128.8 428.2C171.7 430.3 214.3 438.7 257.2 427.8C300 417 343 387 385.8 386C428.7 385 471.3 413 514.2 411.8C557 410.7 600 380.3 642.8 365.5C685.7 350.7 728.3 351.3 771.2 359.8C814 368.3 857 384.7 878.5 392.8L900 401L900 601L878.5 601C857 601 814 601 771.2 601C728.3 601 685.7 601 642.8 601C600 601 557 601 514.2 601C471.3 601 428.7 601 385.8 601C343 601 300 601 257.2 601C214.3 601 171.7 601 128.8 601C86 601 43 601 21.5 601L0 601Z" fill="#7c123e"></path><path d="M0 438L21.5 444.8C43 451.7 86 465.3 128.8 462C171.7 458.7 214.3 438.3 257.2 427.7C300 417 343 416 385.8 413.5C428.7 411 471.3 407 514.2 407.2C557 407.3 600 411.7 642.8 414.5C685.7 417.3 728.3 418.7 771.2 429C814 439.3 857 458.7 878.5 468.3L900 478L900 601L878.5 601C857 601 814 601 771.2 601C728.3 601 685.7 601 642.8 601C600 601 557 601 514.2 601C471.3 601 428.7 601 385.8 601C343 601 300 601 257.2 601C214.3 601 171.7 601 128.8 601C86 601 43 601 21.5 601L0 601Z" fill="#9b1842"></path><path d="M0 497L21.5 490.7C43 484.3 86 471.7 128.8 471.8C171.7 472 214.3 485 257.2 484.2C300 483.3 343 468.7 385.8 461.2C428.7 453.7 471.3 453.3 514.2 459.7C557 466 600 479 642.8 477.8C685.7 476.7 728.3 461.3 771.2 458.7C814 456 857 466 878.5 471L900 476L900 601L878.5 601C857 601 814 601 771.2 601C728.3 601 685.7 601 642.8 601C600 601 557 601 514.2 601C471.3 601 428.7 601 385.8 601C343 601 300 601 257.2 601C214.3 601 171.7 601 128.8 601C86 601 43 601 21.5 601L0 601Z" fill="#ba2243"></path><path d="M0 541L21.5 532.2C43 523.3 86 505.7 128.8 500.5C171.7 495.3 214.3 502.7 257.2 502.3C300 502 343 494 385.8 492.3C428.7 490.7 471.3 495.3 514.2 500.5C557 505.7 600 511.3 642.8 514.3C685.7 517.3 728.3 517.7 771.2 520.7C814 523.7 857 529.3 878.5 532.2L900 535L900 601L878.5 601C857 601 814 601 771.2 601C728.3 601 685.7 601 642.8 601C600 601 557 601 514.2 601C471.3 601 428.7 601 385.8 601C343 601 300 601 257.2 601C214.3 601 171.7 601 128.8 601C86 601 43 601 21.5 601L0 601Z" fill="#d83140"></path><path d="M0 568L21.5 563.5C43 559 86 550 128.8 545.5C171.7 541 214.3 541 257.2 542.8C300 544.7 343 548.3 385.8 547C428.7 545.7 471.3 539.3 514.2 538.2C557 537 600 541 642.8 543.3C685.7 545.7 728.3 546.3 771.2 549.5C814 552.7 857 558.3 878.5 561.2L900 564L900 601L878.5 601C857 601 814 601 771.2 601C728.3 601 685.7 601 642.8 601C600 601 557 601 514.2 601C471.3 601 428.7 601 385.8 601C343 601 300 601 257.2 601C214.3 601 171.7 601 128.8 601C86 601 43 601 21.5 601L0 601Z" fill="#f34538"></path></svg>